<svg width="21" height="22" viewBox="0 0 21 22" fill="none" xmlns="http://www.w3.org/2000/svg">
<path d="M4 21V1H17.0526L20 4.41463V21H4Z" fill="white" stroke="#8A949E"/>
<rect y="4" width="12" height="13" fill="#D63D4A"/>
<path d="M9.58008 7.36719V8.44531H2.50195V7.36719H5.4082V6.01953H6.70898V7.36719H9.58008ZM6.05273 9.05469C7.62305 9.05469 8.77148 9.89844 8.7832 11.0703C8.77148 12.2539 7.62305 13.0977 6.05273 13.0977C4.48242 13.0977 3.33398 12.2539 3.33398 11.0703C3.33398 9.89844 4.48242 9.05469 6.05273 9.05469ZM6.05273 10.1562C5.25586 10.1562 4.66992 10.4961 4.66992 11.0703C4.66992 11.6562 5.25586 12.0078 6.05273 12.0078C6.84961 12.0078 7.43555 11.6562 7.43555 11.0703C7.43555 10.4961 6.84961 10.1562 6.05273 10.1562Z" fill="white"/>
<circle cx="6" cy="14.75" r="0.75" fill="white"/>
</svg>
